<svg width="30" height="30" viewBox="0 0 30 30" fill="none" xmlns="http://www.w3.org/2000/svg">
<circle cx="15" cy="15" r="15" transform="rotate(-180 15 15)" fill="#99D5A8"/>
<path d="M16.2929 9.20711C15.9024 8.81658 15.9024 8.18342 16.2929 7.79289C16.6834 7.40237 17.3166 7.40237 17.7071 7.79289L23.5 13.5858C24.2811 14.3668 24.2811 15.6332 23.5 16.4142L17.7071 22.2071C17.3166 22.5976 16.6834 22.5976 16.2929 22.2071C15.9024 21.8166 15.9024 21.1834 16.2929 20.7929L21.0858 16L7.00003 16C6.44774 16 6.00003 15.5523 6.00003 15C6.00003 14.4477 6.44775 14 7.00003 14L21.0858 14L16.2929 9.20711Z" fill="#00421D"/>
</svg>
